<svg xmlns="http://www.w3.org/2000/svg" version="1.1" width="600px" height="600px" xlink="http://www.w3.org/1999/xlink" style="overflow:hidden!important;"><g id="svga-group-wrapper" transform="scale(3 3)"><g id="svga-group-backs-single"><path id="SvgjsPath4888" d="M225 225H-25V-25h250V225z" fill="#ecf0f1" stroke-width="none" opacity="1"></path></g><g id="svga-group-subwrapper" ><g id="svga-group-hair-back" transform="matrix(0.9799999 0 0 0.9998999000000001 2.000010000000003 0.01000999999999408)"><path id="SvgjsPath5984" d="M100.5,100.5h-1v-1h1V100.5z" fill="#2a232b" stroke-width="none" opacity="1"></path></g><g id="svga-group-humanbody-single"><path id="SvgjsPath4908" d="M195.417 199.778c-2.196-4.746-8.195-11.779-14.86-13.722 -8.239-2.403-26.837-5.308-33.733-6.923 -5.528-1.296-16.662-11.294-20.564-14.65 -0.7-0.6-1.273-1.839-1.287-2.76 -0.139-10.864 4.195-39.724 4.195-39.724H100 70.833c0 0 4.334 28.859 4.193 39.724 -0.011 0.921-0.587 2.16-1.285 2.76 -3.902 3.356-15.036 13.354-20.564 14.65 -6.897 1.615-25.495 4.619-33.733 7.022 -6.667 1.942-12.664 8.876-14.86 13.622 -3.708 8.008-4.584 22.5-4.584 35h100 100C200 222.278 199.123 207.786 195.417 199.778z" fill="#f0c7b1" stroke-width="none" opacity="1" stroke="none"></path><path id="SvgjsPath4909" d="M159.156 184.058c24.342 3.542 34.586 8.708 37.794 50.721H200c0-12.5-0.877-26.992-4.583-35 -2.196-4.746-8.195-11.779-14.86-13.722 -8.239-2.403-26.837-5.308-33.733-6.923 -5.528-1.296-18.242-12.069-21.643-16.35 3.36 4.704 12.791 15.605 21.054 18.46C150.188 182.61 153.48 183.232 159.156 184.058zM53.766 181.244c8.263-2.854 17.693-13.756 21.054-18.46 -3.4 4.28-16.114 15.054-21.643 16.35 -6.896 1.615-25.494 4.619-33.733 7.022 -6.665 1.942-12.664 8.876-14.86 13.622 -3.706 8.008-4.583 22.5-4.583 35h3.05c3.188-41.744 13.475-47.183 37.794-50.721C46.52 183.232 49.813 182.61 53.766 181.244z" fill="#ffe4d6" stroke-width="none" opacity="1" stroke="none"></path><path id="SvgjsPath4910" d="M95.646 197.62c0 0-5.074-1.609-7.083-2.379 -10.449-4.009-44.395-6.607-44.395-6.607s35.754 1.419 43.644 2.779c-0.458-4.767-3.017-20.004-3.017-20.004s5.149 16.815 6.409 21.057C91.878 194.734 95.646 197.62 95.646 197.62zM106.445 196.278c-0.089 0.073-0.191 0.168-0.302 0.268C106.256 196.461 106.358 196.372 106.445 196.278zM95.646 197.62c0 0 2.893 2.992 4.347 3.03 1.91 0.051 4.828-2.899 6.151-4.104 -1.265 0.957-4.159 1.391-5.31 1.436C99.504 198.033 95.646 197.62 95.646 197.62zM116.664 190.101c-1.545 0.248-4.386 0.789-4.386 0.789l2.287-14.89c-0.646 3.071-4.474 16.211-8.12 20.278 1.91-1.616 6.158-2.391 8.324-2.704 10.236-1.484 10.232-1.483 41.062-4.94C155.831 188.634 126.76 188.479 116.664 190.101z" fill="#e1ac8f" stroke-width="none" opacity="1" stroke="none"></path><path id="SvgjsPath4911" d="M195.417 199.778c-2.196-4.746-8.195-11.779-14.86-13.722 -8.239-2.403-26.837-5.308-33.733-6.923 -5.528-1.296-16.662-11.294-20.564-14.65 -0.7-0.6-1.273-1.839-1.287-2.76 -0.139-10.864 4.195-39.724 4.195-39.724H100 70.833c0 0 4.334 28.859 4.193 39.724 -0.011 0.921-0.587 2.16-1.285 2.76 -3.902 3.356-15.036 13.354-20.564 14.65 -6.897 1.615-25.495 4.619-33.733 7.022 -6.667 1.942-12.664 8.876-14.86 13.622 -3.708 8.008-4.584 22.5-4.584 35h100 100C200 222.278 199.123 207.786 195.417 199.778z" fill="none" stroke="#c27b55" stroke-width="1.5" opacity="1"></path></g><g id="svga-group-chinshadow-single"><path id="SvgjsPath5970" d="M74.853 164.349c7.212 4.619 15.864 7.518 25.15 7.518 9.283 0 17.933-2.897 25.143-7.514 -0.541-0.765-0.911-1.767-0.924-2.619 -0.091-7.111 1.683-21.616 2.956-31.035 -15.597-3.146-38.76-3.146-54.355 0 1.273 9.419 3.047 23.924 2.955 31.034C75.767 162.567 75.392 163.58 74.853 164.349z" fill="url(#SvgjsLinearGradient5971)" opacity="1"></path></g><g id="svga-group-clothes-single" ><path id="SvgjsPath5952" d="M128.857 237.978H70.72v-56.183c22.25 4.699 36.88 4.337 58.138 0V237.978z" fill="#f3f1f3" stroke-width="none" opacity="1"></path><path id="SvgjsPath5953" d="M107.44 237.709c-2.775 0-10.727 0.208-16.512-0.23l-0.01-0.171c-0.818-18.658 1.129-30.719 4.537-39.288l0.048-0.123 -0.093-0.093c-0.905-0.904-2.425-1.935-4.034-3.025 -1.611-1.093-3.275-2.221-4.336-3.246 0.625-0.732 1.395-1.454 2.348-2.201 0.245-0.125 1.162-0.843 5.974-4.971 0.214-0.184 0.345-0.296 0.362-0.31 0.818-0.178 2.138-0.293 3.738-0.293 2.183 0 4.731 0.221 6.512 0.563 1.561 1.458 3.451 5.329 4.158 7.17 -0.976 2.291-2.128 3.129-3.717 4.284 -0.774 0.563-1.652 1.201-2.652 2.112l-0.083 0.075 0.021 0.111c4.026 20.31 4.027 25.054 4.027 29.642 0.001 2.021 0.001 6.609 0.339 9.985C107.917 237.707 107.704 237.709 107.44 237.709z" fill="#131111" stroke-width="none" opacity="1"></path><path id="SvgjsPath5954" d="M110.35 191.495c-0.754-1.995-2.71-5.93-4.28-7.359 -2.876-0.563-7.983-0.843-10.47-0.24 -0.108 0.088-6.248 5.383-6.31 5.26 -0.906 0.708-1.788 1.504-2.52 2.39 2.061 2.076 6.655 4.556 8.5 6.4 -3.65 9.18-5.33 21.59-4.55 39.38 0.01 0.11 0.01 0.23 0.02 0.34 6.756 0.52 16.55 0.331 17.55 0.223 -1.16-11.307 1.438-10.455-4.39-39.853C106.968 195.241 108.865 195.04 110.35 191.495zM105.1 210.535c-0.021-0.05-0.04-0.1-0.051-0.13 2 10.55 1.38 18.632 2.891 26.972 -4.736-0.318-12.014-0.052-16.771-0.052 0.369-7.198 1.188-31.684 4.74-39.74 0.17-0.046 0.339-0.084 0.509-0.125l-1.032 34.736 2.747-35.066c0.02-0.002 0.04-0.005 0.06-0.008l1.801 32.605 0.417-32.734c0.026 0.001 0.051-0.001 0.077 0l4.199 36.355 -2.3-36.137c0.314 0.063 0.629 0.141 0.942 0.233 0.03 0 0.07 0.01 0.1 0.03C103.533 198.476 104.365 205.876 105.1 210.535zM104.219 196.726c-2.774-1.251-6.363-1.026-9.129 0.24 -1.681-1.813-4.08-3.077-7.53-5.391 0.55-0.479 1.26-1.07 2.21-1.81 0.08 0 3.48-2.771 3.54-2.83 0.92-0.84 1.74-1.79 2.52-2.62 2.93-0.12 7.23 0.02 9.82 0.14 1.5 1.876 2.931 4.696 4.01 6.94C107.699 194.266 105.759 195.545 104.219 196.726z" fill="#000000" stroke-width="none" opacity="1"></path><path id="SvgjsPath5955" d="M78.196 213.077c-11.534-40.071-6.325-29.581-9.399-45.32 2.028-4.813 3.958-10.44 5.042-11.598l0.08-0.086c2.292 24.007 8.958 13.636 23.784 27.722C89.228 189.449 81.372 204.127 78.196 213.077zM131.193 167.758c-1.448-3.702-4.077-9.127-5.215-10.331 1.424 20.678-15.146 16.551-24.35 26.2 8.812 5.713 17.173 20.66 20.172 29.455C134.92 169.568 127.85 188.673 131.193 167.758z" fill="#f3f1f4" stroke-width="none" opacity="1"></path><path id="SvgjsPath5956" d="M125.801 156.967c0 5.137-0.42 9.162-1.262 10.339 -2.443 5.809-13.103 9.853-16.39 11.51 -2.495 1.227-4.942 2.809-6.83 4.85 3.813 2.476 5.705 3.383 12.93 14.44 4.246 7.109 6.539 12.448 7.561 15.64 13.378-44.331 6.222-24.978 9.59-46.01C129.814 163.65 126.801 157.885 125.801 156.967zM129.449 176.495c-1.957 18.078-3.491 14.485-7.74 34.181 -2.716-8.644-11.075-22.913-19.43-27.091 3.937-2.957 5.031-3.131 9.729-5.279 14.396-6.42 14.985-12.385 14.138-20.271 1.207 1.423 3.125 6.161 4.692 9.521C129.979 170.702 129.589 175.194 129.449 176.495zM79.199 171.896c-4.408-3.649-3.16-8.162-5.189-16.215 -0.902 1-3.146 6.632-5.42 12.055 0.557 2.796 0.681 7.389 0.76 8.84 0.559 12.202 1.75 12.765 8.83 37.16 3.031-8.905 11.558-24.37 20.24-30.009C91.489 177.401 82.765 174.999 79.199 171.896zM84.659 197.405c-2.221 3.666-4.517 7.48-6.37 13.28 -4.442-20.269-5.999-16.964-7.73-34.16 -0.32-2.971-0.617-6.027-1.4-8.96 1.638-3.588 3.981-10.281 4.731-10.995 1.366 7.078 0.066 13.462 5.669 16.995 2.621 1.996 11.104 5.32 17.52 10.36C93.188 186.235 91.094 187.596 84.659 197.405z" fill="#cfc8d7" stroke-width="none" opacity="1"></path><path id="SvgjsPath5957" d="M120.319 209.824l-1.209-2.654c0 0 9.148-28.175 10.743-36.225C130.765 179.299 120.319 209.824 120.319 209.824zM78.879 208.721l1.436-3.259c0 0-8.573-26.467-10.168-34.517C69.235 179.299 78.879 208.721 78.879 208.721z" fill="#e1e0e1" stroke-width="none" opacity="1"></path><path id="SvgjsPath5958" d="M124.787 195.605c7.065-20.834 2.756-22.551 6.305-29.469 0.134-0.261 1.396 1.046 1.533 1.64 1.306 5.658 53.349 17.338 54.994 18.598 1.456 1.058 5.65 3.137 5.65 3.137 4.937 9.07 7.762 10.698 9.15 34.984 0.13 3.083-0.061 11.801-0.061 14.141l-85.559-0.676C117.004 230.169 117.999 216.15 124.787 195.605zM75.213 195.605c-7.065-20.834-2.756-22.551-6.305-29.469 -0.134-0.261-1.396 1.046-1.533 1.64 -1.306 5.658-53.349 17.338-54.994 18.598 -1.456 1.058-5.65 3.137-5.65 3.137 -4.937 9.07-7.762 10.698-9.15 34.984 -0.13 3.083 0.061 11.801 0.061 14.141l85.559-0.676C82.996 230.169 82.001 216.15 75.213 195.605z" fill="#386e77" stroke-width="none" opacity="1"></path><path id="SvgjsPath5959" d="M130.307 190c-4.552 16.387-10.771 31.116-13.506 47.96 -0.89-0.007 1.491-22.695 7.986-42.354 7.065-20.834 2.756-22.551 6.305-29.469 0.077-0.15-0.619 1.976-0.223 2.432C130.723 176.296 132.625 182.272 130.307 190zM69.693 190c4.552 16.387 10.771 31.116 13.506 47.96 0.89-0.007-1.491-22.695-7.986-42.354 -7.065-20.834-2.756-22.551-6.305-29.469 -0.077-0.15 0.619 1.976 0.223 2.432C69.277 176.296 67.375 182.272 69.693 190z" fill="#265e68" stroke-width="none" opacity="1"></path><path id="SvgjsPath5960" d="M152.436 186.031c0 0-2.284 2.561-8.636 6.923 5.313-5.885 7.761-8.249 7.761-8.249L152.436 186.031zM154.611 197.906l-1.528-1.367c-4.538 13.781-7.571 20.587-12.828 36.618C147.799 218.831 149.599 213.745 154.611 197.906zM48.439 184.705c0 0 2.447 2.364 7.761 8.249 -6.352-4.362-8.636-6.923-8.636-6.923L48.439 184.705zM59.745 233.157c-5.257-16.031-8.29-22.837-12.828-36.618l-1.528 1.367C50.401 213.745 52.201 218.831 59.745 233.157z" fill="#184f58" stroke-width="none" opacity="1"></path><path id="SvgjsPath5961" d="M179.409 219.335c0-11.596 3.11-18.351 9.615-28.142 0.608 0.372 0.931 0.543 1.345 0.875C183.452 200.651 182.078 208.659 179.409 219.335zM141.312 230.703c6.113-16.703 8.06-23.228 12.107-34.388 -1.15-0.351-8.671-2.985-9.819-3.346 0.41 1 3.113 1.822 7.822 4.709C151.422 197.679 146.333 213.082 141.312 230.703zM149.533 184.577c0 0-3.352 4.14-6.664 8.328 3.388-2.67 5.748-5.644 8.691-8.2 -3.994-3.368-10.511-8.524-14.721-12.089C140.163 176.188 149.533 184.577 149.533 184.577zM202.073 238.634l0.286 0.002c0-2.34 0.19-11.058 0.061-14.141 -1.389-24.286-4.214-25.914-9.15-34.984 0 0-4.194-2.079-5.65-3.137 -1.334-1.021-38.794-9.922-52.49-15.88 16.011 10.971 46.282 15.027 55.24 21.574C194.702 195.235 200.535 222.337 202.073 238.634zM9.613 192.037c0.542-0.383 0.619-0.366 1.168-0.729 6.505 9.791 9.809 16.431 9.809 28.026C17.922 208.659 16.08 200.318 9.613 192.037zM48.578 197.679c4.709-2.887 7.412-3.709 7.822-4.709 -1.148 0.36-8.669 2.995-9.819 3.346 4.048 11.16 5.994 17.685 12.107 34.388C53.667 213.082 48.578 197.679 48.578 197.679zM63.16 172.616c-4.21 3.564-10.727 8.721-14.721 12.089 2.943 2.557 5.304 5.53 8.691 8.2 -3.313-4.188-6.664-8.328-6.664-8.328S59.837 176.188 63.16 172.616zM9.631 192.068c8.958-6.547 39.229-10.604 55.24-21.574 -13.696 5.958-51.156 14.858-52.49 15.88 -1.456 1.058-5.65 3.137-5.65 3.137 -4.937 9.07-7.762 10.698-9.15 34.984 -0.13 3.083 0.061 11.801 0.061 14.141l0.286-0.002C-0.535 222.337 5.298 195.235 9.631 192.068z" fill="#4d7e86" stroke-width="none" opacity="1"></path><path id="SvgjsPath5962" d="M132.246 166.374c-0.049-0.293-0.443-0.634-0.738-0.657 -0.296-0.023-0.432 0.458-0.567 0.722 -3.549 6.918 0.414 8.333-6.651 29.167 -6.788 20.545-7.584 34.862-7.787 42.653l85.857 0.377c0-2.34 0.489-11.058 0.359-14.141 -1.389-24.286-4.313-26.113-9.25-35.184 0 0-4.394-2.179-5.85-3.236 -4.889-3.742-0.59 0.023-22.03-6 -17.576-5.135-18.525-6.577-24.899-8.35 -1.288-0.369-4.057-0.822-6.95-2.851C133.475 168.689 132.341 166.944 132.246 166.374zM116.974 237.31c3.729-23.564 6.085-29.73 11.296-47.274 3.522-11.104 1.576-17.408 3.254-22.54 0.088-0.268 0.467-0.282 0.571-0.017 2.434 6.214 9.238 7.656 18.834 17.047 -5.813 5.813-7.309 7.38-8.06 8.38 0.864 0.438 5.582 2.229 9.9 3.9 -0.245 0.767-13.415 38.02-13.57 38.52 10-21.578 11.292-28.211 14.22-39.01 -0.812-0.612-7.892-3.212-9.09-3.64 4.274-4.424 5.51-5.396 7.53-7.971 1.622 0-15.874-13.318-16.73-14.211 0.462 0.364 2.752 1.391 3.01 1.491 14.682 5.166 3.065 2.829 35.2 12.001 3.072 0.781 7.355 1.567 10.53 1.879 0.218 0.02 5.395 2.727 8.35 3.97 -7.189 7.475-11.797 17.133-12.81 29.5 3.219-12.666 4.951-19.29 13.14-28.819 7.62 15.422 6.755 13.195 9.23 47.71C181.167 237.413 149.559 237.227 116.974 237.31zM66.261 168.875c-2.894 2.028-5.662 2.481-6.95 2.851 -6.374 1.772-7.323 3.215-24.899 8.35 -21.44 6.023-17.142 2.258-22.03 6 -1.456 1.058-5.85 3.236-5.85 3.236 -4.937 9.07-7.861 10.897-9.25 35.184 -0.13 3.083 0.359 11.801 0.359 14.141l85.857-0.377c-0.203-7.791-0.999-22.108-7.787-42.653 -7.065-20.834-3.103-22.249-6.651-29.167 -0.136-0.264-0.271-0.745-0.567-0.722 -0.295 0.023-0.689 0.364-0.738 0.657C67.659 166.944 66.525 168.689 66.261 168.875zM-1.779 238.226c2.476-34.515 1.61-32.288 9.23-47.71 8.188 9.529 9.921 16.153 13.14 28.819 -1.013-12.367-5.62-22.025-12.81-29.5 2.955-1.243 8.132-3.95 8.35-3.97 3.175-0.312 7.458-1.098 10.53-1.879 32.135-9.172 20.519-6.835 35.2-12.001 0.258-0.101 2.548-1.127 3.01-1.491 -0.856 0.893-18.353 14.211-16.73 14.211 2.021 2.575 3.256 3.547 7.53 7.971 -1.198 0.428-8.278 3.027-9.09 3.64 2.928 10.799 4.22 17.432 14.22 39.01 -0.155-0.5-13.325-37.753-13.57-38.52 4.318-1.672 9.036-3.463 9.9-3.9 -0.751-1-2.247-2.567-8.06-8.38 9.596-9.391 16.4-10.833 18.834-17.047 0.104-0.266 0.483-0.251 0.571 0.017 1.678 5.132-0.269 11.436 3.254 22.54 5.211 17.544 7.567 23.71 11.296 47.274C50.441 237.227 18.833 237.413-1.779 238.226z" fill="#0c4049" stroke-width="none" opacity="1"></path></g><g id="svga-group-head" ><g id="svga-group-ears-left" transform="translate(1.5 0)"><path id="SvgjsPath5963" d="M47.001 83.231c-1.376-2.453-5.638-8.48-9.98-7.003 -2.749 0.935-3.293 3.993-3.735 6.693 -0.588 3.591 0.471 10.694 1.389 13.26 0.881 2.467 3.533 7.23 5.264 9.045 2.13 2.225 4.775 9.324 5.194 10.061 0.66 1.162 1.536 2.911 4.122 2.692 2.853-0.244 4.584-1.85 5.856-2.121C58.253 115.192 50.582 89.616 47.001 83.231z" fill="#f0c7b1" stroke="#c27b55" stroke-width="1.5" opacity="1"></path><path id="SvgjsPath5964" d="M44.197 98.104c-0.132-0.581 0.007-1.56 0.142-2.504 0.124-0.861 0.24-1.675 0.169-2.251 -0.267-2.154-1.773-6.249-2.757-8.467 -1.132-2.554-2.963-5.77-5.262-6.599 -0.95-0.343-1.575 0.067-1.938 0.484 -0.266 0.305-0.325 0.665-0.238 0.707 0.086 0.042 0.285-0.254 0.572-0.535 0.235-0.229 0.579-0.426 1.051-0.385 -0.19 1.073-1.167 6.883-0.744 10.845 0.333 3.115 1.593 5.442 1.79 5.791 0.029 0.367 0.077 0.726 0.148 1.075 0.929 4.547 4.971 9.717 6.378 11.409 0.259 0.313 0.531 0.497 0.598 0.423 0.066-0.076-0.094-0.387-0.353-0.7 -1.388-1.679-5.391-6.831-6.289-11.218 -0.952-4.656 2.318-11.556 3.048-13.017 0.371 0.685 0.687 1.344 0.93 1.893 0.19 0.431 0.402 0.936 0.619 1.479 -0.429 0.762-3.434 6.32-2.338 10.767 0.406 1.641 2.235 3.755 3.447 4.333 0.667 0.32 0.919 0.797 1.209 1.349 0.336 0.64 0.718 1.365 1.828 1.892 0.225 0.108 0.429 0.151 0.61 0.151 0.313 0 0.551-0.135 0.725-0.293 0.018 0.28 0.017 0.64 0.009 0.97 -0.012 0.431 0.042 0.783 0.137 0.791 0.094 0.008 0.196-0.332 0.207-0.76 0.016-0.526 0.013-1.177-0.072-1.488 -0.248-0.917-1.008-1.953-1.813-3.048C45.221 100.116 44.403 99.003 44.197 98.104zM36.95 94.073c-2.177-7.139 0.656-13.3 1.144-14.28 0.85 0.822 1.6 1.919 2.21 2.995C39.86 83.646 37.041 89.271 36.95 94.073zM46.341 104.515c-1.004-0.475-1.339-1.115-1.666-1.733 -0.293-0.559-0.598-1.136-1.369-1.505 -0.168-0.081-0.352-0.203-0.542-0.343 -2.486-6.263 0.272-9.001 0.963-9.562 0.211 0.766 0.369 1.468 0.439 2.031 0.063 0.517-0.052 1.339-0.167 2.134 -0.142 0.985-0.286 2.004-0.137 2.664 0.226 0.982 1.069 2.131 1.884 3.242 0.723 0.986 1.466 2.003 1.721 2.832C47.359 104.439 47.017 104.836 46.341 104.515z" fill="#c27b55" stroke-width="none" opacity="1" stroke="none"></path></g><g id="svga-group-ears-right" transform="translate(-1.5 0)"><path id="SvgjsPath5965" d="M152.736 83.231c1.377-2.453 5.639-8.48 9.98-7.003 2.75 0.935 3.293 3.993 3.736 6.693 0.588 3.591-0.471 10.694-1.389 13.26 -0.881 2.467-3.533 7.23-5.266 9.045 -2.129 2.225-4.775 9.324-5.193 10.061 -0.658 1.162-1.535 2.911-4.121 2.692 -2.854-0.244-4.584-1.85-5.857-2.121C141.484 115.192 149.156 89.616 152.736 83.231z" fill="#f0c7b1" stroke="#c27b55" stroke-width="1.5" opacity="1"></path><path id="SvgjsPath5966" d="M153.727 101.196c-0.805 1.096-1.564 2.131-1.813 3.048 -0.086 0.311-0.088 0.962-0.072 1.488 0.012 0.428 0.113 0.768 0.207 0.76s0.148-0.36 0.137-0.791c-0.008-0.331-0.008-0.69 0.01-0.97 0.174 0.158 0.412 0.293 0.725 0.293 0.182 0 0.385-0.043 0.609-0.151 1.109-0.526 1.492-1.252 1.828-1.892 0.289-0.552 0.543-1.028 1.209-1.349 1.213-0.578 3.041-2.692 3.447-4.333 1.096-4.447-1.908-10.005-2.338-10.767 0.217-0.544 0.43-1.049 0.619-1.479 0.244-0.549 0.559-1.208 0.93-1.893 0.73 1.46 4 8.361 3.049 13.017 -0.896 4.387-4.9 9.539-6.289 11.218 -0.258 0.313-0.418 0.624-0.352 0.7 0.066 0.074 0.338-0.109 0.598-0.423 1.406-1.692 5.449-6.862 6.379-11.409 0.07-0.35 0.117-0.708 0.146-1.075 0.197-0.349 1.459-2.676 1.791-5.791 0.422-3.961-0.555-9.772-0.744-10.845 0.473-0.042 0.814 0.156 1.051 0.385 0.287 0.281 0.486 0.577 0.572 0.535 0.086-0.042 0.027-0.402-0.238-0.707 -0.363-0.417-0.988-0.827-1.938-0.484 -2.299 0.83-4.131 4.045-5.262 6.599 -0.984 2.218-2.49 6.313-2.758 8.467 -0.072 0.576 0.045 1.39 0.17 2.251 0.135 0.945 0.273 1.924 0.141 2.504C155.336 99.003 154.518 100.116 153.727 101.196zM159.434 82.787c0.611-1.075 1.361-2.173 2.211-2.995 0.488 0.98 3.32 7.141 1.145 14.28C162.697 89.271 159.879 83.646 159.434 82.787zM152.27 104.275c0.254-0.829 0.998-1.846 1.721-2.832 0.816-1.111 1.658-2.26 1.885-3.242 0.148-0.66 0.004-1.679-0.137-2.664 -0.115-0.795-0.23-1.617-0.166-2.134 0.068-0.563 0.227-1.266 0.438-2.031 0.691 0.561 3.449 3.299 0.965 9.562 -0.191 0.14-0.375 0.263-0.543 0.343 -0.771 0.369-1.074 0.946-1.369 1.505 -0.326 0.618-0.662 1.258-1.666 1.733C152.721 104.836 152.379 104.439 152.27 104.275z" fill="#c27b55" stroke-width="none" opacity="1" stroke="none"></path></g><g id="svga-group-faceshape-wrap" transform="matrix(0.9799999 0 0 0.9998999000000001 2.0000700436351764 0.008144832581535866)"><g id="svga-group-faceshape-single" ><path id="SvgjsPath5967" d="M100.002 0.867C66.381 0.813 39.186 28.343 39.134 62.366c-0.008 5.403 0.669 10.644 1.953 15.641l0.004 0c0.011 0.054 8.845 35.747 15.375 54.081 5.578 15.662 23.021 29.779 43.536 29.779 20.514 0 37.958-14.117 43.537-29.779 6.529-18.334 15.362-54.027 15.374-54.081l0.005 0c1.283-4.997 1.961-10.237 1.952-15.641C160.819 28.343 133.623 0.813 100.002 0.867z" fill="#f0c7b1" stroke-width="none" opacity="1" stroke="none"></path><path id="SvgjsPath5968" d="M146.769 22.992c7.449 10.317 10.881 23.178 10.902 37.137 0.01 6.46-1.889 15.641-1.889 15.641 -0.012 0.054-8.522 35.747-14.816 54.081 -5.376 15.661-21.191 29.779-40.963 29.779 -19.773 0-35.585-14.118-40.961-29.779 -6.296-18.334-14.809-54.027-14.82-54.081 0 0-1.895-10.154-1.886-15.641 0.021-13.956 3.448-26.813 10.895-37.128 -8.781 10.663-14.072 24.382-14.095 39.365 -0.008 5.403 0.669 10.644 1.953 15.641l0.004 0c0.011 0.054 8.845 35.747 15.375 54.081 5.578 15.662 23.021 29.779 43.536 29.779 20.514 0 37.958-14.117 43.537-29.779 6.529-18.334 15.362-54.027 15.374-54.081l0.005 0c1.283-4.997 1.961-10.237 1.952-15.641C160.848 47.379 155.554 33.656 146.769 22.992z" fill="#e8b9a0" stroke-width="none" opacity="1" stroke="none"></path><path id="SvgjsPath5969" d="M100.002 0.867C66.381 0.813 39.186 28.343 39.134 62.366c-0.008 5.403 0.669 10.644 1.953 15.641l0.004 0c0.011 0.054 8.845 35.747 15.375 54.081 5.578 15.662 23.021 29.779 43.536 29.779 20.514 0 37.958-14.117 43.537-29.779 6.529-18.334 15.362-54.027 15.374-54.081l0.005 0c1.283-4.997 1.961-10.237 1.952-15.641C160.819 28.343 133.623 0.813 100.002 0.867z" fill="none" stroke="#c27b55" stroke-width="1.5" opacity="1"></path></g></g><g id="svga-group-mouth-single" ><path id="SvgjsPath5993" d="M100.2 142.947c-2.832 0.144-3.644-2.753-3.644-2.753s3.931 0.565 6.991-0.353C103.548 139.842 102.692 142.822 100.2 142.947z" fill="url(#SvgjsLinearGradient5994)" opacity="1"></path><path id="SvgjsPath5997" d="M100.488 140.76c-1.984 0.1-3.765-0.077-3.877-0.089 -0.138-0.014-0.238-0.136-0.224-0.272 0.015-0.138 0.143-0.233 0.274-0.224 0.041 0.003 4.096 0.405 6.738-0.337 0.131-0.032 0.271 0.041 0.309 0.174s-0.04 0.27-0.173 0.308C102.601 140.582 101.517 140.708 100.488 140.76z" fill="#c27b55" stroke-width="none" opacity="1"></path><path id="SvgjsPath5998" d="M82.5 130.299c0 0 12.532 1.486 16.718 1.499 4.553 0.012 19.282-1.499 19.282-1.499 -4.258 3.534-8.943 6.932-19.555 6.999C89.453 137.359 87.021 133.912 82.5 130.299z" fill="#ffffff" stroke-width="none" opacity="1"></path><path id="SvgjsPath5999" d="M82.5 130.299c0 0 12.532 1.486 16.718 1.499 4.553 0.012 19.282-1.499 19.282-1.499 -4.258 3.534-8.943 6.932-19.555 6.999C89.453 137.359 87.021 133.912 82.5 130.299z" fill="none" stroke="#c27b55" stroke-width="0.75" opacity="1"></path></g><g id="svga-group-eyes-left" ><g id="svga-group-eyesback-left"><path id="SvgjsPath4934" d="M61.752 82.523c-0.506-2.285 5.191-3.973 12.711-3.051 7.518 0.923 12.738 5.524 12.052 7.844 -0.38 1.286-10.639 3.245-14.253 2.847C68.598 89.758 62.974 88.04 61.752 82.523z" fill="url(#SvgjsRadialGradient4935)" opacity="1"></path></g><g id="svga-group-eyesiriswrapper-left" transform="translate(0.25 0.25)"><g id="svga-group-eyesiriscontrol-left" ><g id="svga-group-eyesiris-left" ><path id="SvgjsPath5641" d="M81.235 86.646c-1.087 5.321-5.202 8.456-9.201 6.994 -3.996-1.46-6.356-6.964-5.269-12.286 1.086-5.324 5.211-8.458 9.207-6.996C79.965 75.818 82.323 81.322 81.235 86.646z" fill="#bd1c1b" stroke="#8f0100" stroke-width="0.5" opacity="1"></path><path id="SvgjsPath5642" d="M80.068 86.771c-1.06 4.085-4.26 6.469-7.374 5.332 -2.875-1.053-4.689-4.732-4.454-8.62 1.068-0.112 2.233-0.146 3.444-0.066 -0.012 0.056-0.033 0.104-0.045 0.161 -0.381 1.875 0.509 3.841 1.991 4.384 1.487 0.542 3.001-0.545 3.385-2.419 0.047-0.245 0.073-0.49 0.081-0.732C78.112 85.304 79.109 85.942 80.068 86.771z" fill="#cc3332" stroke-width="none" opacity="1" stroke="none"></path><path id="SvgjsPath5643" d="M75.015 81.018c-1.501-0.574-3.035 0.569-3.422 2.564 -0.389 1.986 0.515 4.063 2.017 4.638 1.505 0.575 3.039-0.569 3.426-2.555C77.427 83.669 76.52 81.591 75.015 81.018zM75.344 88.071c-0.625 0.258-1.271-0.085-1.443-0.771 -0.166-0.685 0.205-1.444 0.833-1.698 0.629-0.259 1.273 0.086 1.447 0.767C76.35 87.05 75.978 87.812 75.344 88.071z" fill="#000000" stroke-width="none" opacity="0.9"></path><path id="SvgjsPath5644" d="M70.014 89.265c-0.463 0.37-1.152 0.04-1.548-0.744 -0.396-0.777-0.335-1.708 0.129-2.079 0.458-0.364 1.156-0.034 1.549 0.744C70.532 87.964 70.477 88.896 70.014 89.265z" fill="#ffffff" stroke-width="none" opacity="0.6"></path><path id="SvgjsPath5645" d="M79.888 83.568c-1.058 0.843-2.647 0.083-3.547-1.701 -0.9-1.786-0.764-3.92 0.293-4.762 1.056-0.849 2.646-0.087 3.542 1.699C81.074 80.589 80.945 82.721 79.888 83.568z" fill="#ffffff" stroke-width="none" opacity="0.9"></path></g></g></g><g id="svga-group-eyesfront-left"><path id="SvgjsPath4956" d="M53.294 83c0.809 10.899 11.637 23.583 20.506 22.236 10.498 0.106 20.864-7.868 20.864-22.305s-5.087-26.528-21.127-26.528C62.037 56.402 53.294 68.563 53.294 83zM61.752 82.523c-0.506-2.285 5.191-3.973 12.711-3.051 7.518 0.923 12.738 5.524 12.052 7.844 -0.38 1.286-10.639 3.245-14.253 2.847C68.598 89.758 62.974 88.04 61.752 82.523z" fill="#f0c7b1" stroke-width="none" opacity="1" stroke="none"></path><path id="SvgjsPath4957" d="M72.262 90.163c3.614 0.398 13.873-1.561 14.253-2.847 0.687-2.32-4.534-6.921-12.052-7.844C68.003 78.68 62.9 79.816 61.907 81.6c0.898-6.4 7.7-11.397 15.987-11.434 8.911-0.037 16.148 5.676 16.172 12.765 0.021 7.088-7.185 12.862-16.095 12.902 -8.913 0.037-16.149-5.676-16.173-12.764 0-0.105 0.016-0.208 0.019-0.313C63.147 88.083 68.651 89.764 72.262 90.163z" fill="url(#SvgjsRadialGradient4958)" opacity="1"></path><path id="SvgjsPath4962" d="M61.752 82.523c-0.506-2.285 5.191-3.973 12.711-3.051 7.518 0.923 12.738 5.524 12.052 7.844 -0.38 1.286-10.639 3.245-14.253 2.847C68.598 89.758 62.974 88.04 61.752 82.523z" fill="url(#SvgjsRadialGradient4963)" opacity="1"></path><path id="SvgjsPath4966" d="M62.148 77.417c4.208-1.978 9.35-2.16 13.838-1.005 2.404 0.561 4.965 1.285 7.063 2.638 1.945 1.135 3.525 2.5 5.002 4.19 -1.342-1.701-2.773-3.118-4.623-4.27 -2.276-1.416-4.769-2.294-7.364-2.916C71.478 74.928 66.342 75.184 62.148 77.417z" fill="#c27b55" stroke-width="none" opacity="1" stroke="none"></path><path id="SvgjsPath4967" d="M62.769 78.02c0.88-0.352 4.065-1 5.456-1.066 1.687-0.082 5.073 0.125 6.735 0.424 3.374 0.608 9.251 2.483 11.678 7.184 0.746 1.445 0.074 2.456-0.123 2.675 0.3-2.426-4.838-6.746-12.052-7.604 -7.52-0.894-13.217 0.743-12.711 2.958 1.222 5.348 6.846 7.013 10.51 7.405 4.099 0.439 11.684-1.539 12.686-1.753 -1.999 1.009-7.524 2.095-9.767 2.303 -0.744 0.07-2.24 0.104-2.986 0.085 -5.949-0.158-10.169-3.175-11.729-7.26C59.464 80.745 60.56 78.902 62.769 78.02z" fill="#000000" stroke-width="none" opacity="1" stroke="none"></path></g></g><g id="svga-group-eyes-right" ><g id="svga-group-eyesback-right"><path id="SvgjsPath4941" d="M137.849 82.523c0.506-2.285-5.191-3.973-12.711-3.051 -7.518 0.923-12.738 5.524-12.052 7.844 0.38 1.286 10.639 3.245 14.253 2.847C131.003 89.758 136.627 88.04 137.849 82.523z" fill="url(#SvgjsRadialGradient4942)" opacity="1"></path></g><g id="svga-group-eyesiriswrapper-right" transform="translate(-0.25 0.25)"><g id="svga-group-eyesiriscontrol-right" ><g id="svga-group-eyesiris-right" ><path id="SvgjsPath5646" d="M133.234 86.646c-1.088 5.321-5.203 8.456-9.202 6.992 -3.994-1.458-6.356-6.963-5.267-12.284 1.087-5.324 5.21-8.458 9.204-6.994C131.966 75.818 134.324 81.323 133.234 86.646z" fill="#bd1c1b" stroke="#8f0100" stroke-width="0.5" opacity="1"></path><path id="SvgjsPath5647" d="M132.069 86.771c-1.062 4.085-4.261 6.468-7.375 5.33 -2.875-1.052-4.69-4.73-4.454-8.618 1.067-0.111 2.235-0.146 3.445-0.066 -0.011 0.055-0.035 0.103-0.046 0.161 -0.381 1.875 0.508 3.84 1.99 4.383 1.489 0.542 3.001-0.547 3.385-2.42 0.049-0.244 0.073-0.49 0.083-0.732C130.11 85.305 131.108 85.943 132.069 86.771z" fill="#cc3332" stroke-width="none" opacity="1" stroke="none"></path><path id="SvgjsPath5648" d="M127.017 81.018c-1.504-0.573-3.036 0.569-3.425 2.564 -0.387 1.987 0.515 4.063 2.02 4.637 1.504 0.575 3.035-0.57 3.426-2.555C129.427 83.669 128.52 81.591 127.017 81.018zM127.343 88.071c-0.623 0.258-1.271-0.085-1.44-0.771 -0.168-0.684 0.204-1.445 0.833-1.697 0.629-0.26 1.272 0.085 1.445 0.766C128.351 87.049 127.978 87.811 127.343 88.071z" fill="#000000" stroke-width="none" opacity="0.9"></path><path id="SvgjsPath5649" d="M122.014 89.265c-0.461 0.368-1.15 0.039-1.547-0.745 -0.396-0.776-0.335-1.706 0.128-2.079 0.459-0.364 1.155-0.033 1.547 0.746C122.533 87.964 122.479 88.895 122.014 89.265z" fill="#ffffff" stroke-width="none" opacity="0.6"></path><path id="SvgjsPath5650" d="M131.888 83.568c-1.06 0.844-2.646 0.083-3.548-1.701 -0.897-1.786-0.766-3.919 0.293-4.761 1.056-0.85 2.646-0.088 3.54 1.698C133.074 80.591 132.945 82.722 131.888 83.568z" fill="#ffffff" stroke-width="none" opacity="0.9"></path></g></g></g><g id="svga-group-eyesfront-right"><path id="SvgjsPath4976" d="M126.063 56.402c-16.04 0-21.127 12.091-21.127 26.528s10.366 22.412 20.864 22.305c8.869 1.347 19.697-11.337 20.506-22.236C146.307 68.563 137.563 56.402 126.063 56.402zM127.339 90.163c-3.614 0.398-13.873-1.561-14.253-2.847 -0.687-2.32 4.534-6.921 12.052-7.844 7.52-0.922 13.217 0.767 12.711 3.051C136.627 88.04 131.003 89.758 127.339 90.163z" fill="#f0c7b1" stroke-width="none" opacity="1" stroke="none"></path><path id="SvgjsPath4977" d="M127.339 90.163c-3.614 0.398-13.873-1.561-14.253-2.847 -0.687-2.32 4.534-6.921 12.052-7.844 6.46-0.792 11.563 0.345 12.556 2.128 -0.898-6.4-7.7-11.397-15.987-11.434 -8.911-0.037-16.148 5.676-16.172 12.765 -0.021 7.088 7.185 12.862 16.095 12.902 8.913 0.037 16.149-5.676 16.173-12.764 0-0.105-0.016-0.208-0.019-0.313C136.453 88.083 130.949 89.764 127.339 90.163z" fill="url(#SvgjsRadialGradient4978)" opacity="1"></path><path id="SvgjsPath4982" d="M137.849 82.523c0.506-2.285-5.191-3.973-12.711-3.051 -7.518 0.923-12.738 5.524-12.052 7.844 0.38 1.286 10.639 3.245 14.253 2.847C131.003 89.758 136.627 88.04 137.849 82.523z" fill="url(#SvgjsRadialGradient4983)" opacity="1"></path><path id="SvgjsPath4986" d="M137.452 77.417c-4.208-1.978-9.35-2.16-13.838-1.005 -2.404 0.561-4.965 1.285-7.063 2.638 -1.945 1.135-3.525 2.5-5.002 4.19 1.342-1.701 2.773-3.118 4.623-4.27 2.276-1.416 4.769-2.294 7.364-2.916C128.123 74.928 133.259 75.184 137.452 77.417z" fill="#c27b55" stroke-width="none" opacity="1" stroke="none"></path><path id="SvgjsPath4987" d="M136.832 78.02c-0.88-0.352-4.065-1-5.456-1.066 -1.687-0.082-5.073 0.125-6.735 0.424 -3.374 0.608-9.251 2.483-11.678 7.184 -0.746 1.445-0.074 2.456 0.123 2.675 -0.3-2.426 4.838-6.746 12.052-7.604 7.52-0.894 13.217 0.743 12.711 2.958 -1.222 5.348-6.846 7.013-10.51 7.405 -4.099 0.439-11.684-1.539-12.686-1.753 1.999 1.009 7.524 2.095 9.767 2.303 0.744 0.07 2.24 0.104 2.986 0.085 5.949-0.158 10.169-3.175 11.729-7.26C140.137 80.745 139.041 78.902 136.832 78.02z" fill="#000000" stroke-width="none" opacity="1" stroke="none"></path></g></g><g id="svga-group-facehighlight-single" ><path id="SvgjsPath4900" d="M141 113.974c0.035 22.622-18.292 40.994-40.938 41.025 -22.642 0.037-41.028-18.273-41.063-40.9 -0.035-22.62 18.292-41.064 40.937-41.1C122.579 72.964 140.967 91.349 141 113.974z" fill="url(#SvgjsRadialGradient4901)" opacity="1"></path><path id="SvgjsPath4904" d="M137.5 53.999c0 20.711-16.789 37.5-37.499 37.5 -20.711 0-37.501-16.789-37.501-37.5s16.79-37.5 37.501-37.5C120.711 16.499 137.5 33.288 137.5 53.999z" fill="url(#SvgjsRadialGradient4905)" opacity="1"></path></g><g id="svga-group-eyebrows-left" ><path id="SvgjsPath5683" d="M53.672 67.988c7.019 3.546 15.071 4.443 31.64 6.435 0.542 0.086 0.929 0.187 1.277 0.191 1.666-0.032 3.083-1.561 2.854-2.926C88.66 66.485 60.682 68.92 53.672 67.988z" fill="#2a232b" stroke-width="none" opacity="1"></path></g><g id="svga-group-eyebrows-right" ><path id="SvgjsPath5684" d="M146.328 67.988c-7.019 3.546-15.071 4.443-31.64 6.435 -0.542 0.086-0.929 0.187-1.277 0.191 -1.666-0.032-3.084-1.561-2.854-2.926C111.34 66.485 139.317 68.92 146.328 67.988z" fill="#2a232b" stroke-width="none" opacity="1"></path></g><g id="svga-group-nose-single" transform="matrix(1.2000007300000004 0 0 1.2000007300000004 -19.870191219312176 -22.10029344588412) translate(-1.0000000999999998 -4.0000004)"><path id="SvgjsPath5434" d="M109.895 118.829c0.19-0.512 0.307-1.047 0.396-1.584 0.033-0.198-0.229-0.929-0.252-0.697 -0.101 0.941-0.612 2.262-1.6 2.551 -1.133 0.329-1.783-0.056-1.886-1.172 -0.104-1.125 0.297-2.619-0.109-3.665 -0.264-0.676-0.856-1.226-1.464-1.606 0.458 2.04 0.823 4.704-1.128 6.164 0.167 0.199 0.319 0.293 0.467 0.333 -0.153 0.026-0.308 0.059-0.467 0.13 -0.771 0.352-3.586 1.015-4.404 0.657 -0.193-0.085-0.622-0.152-1.16-0.204 -0.362-0.315-1.023-1.138-1.332-1.328 -1.215-0.751-1.851-2.069-1.926-3.472 -0.163-2.955 1.373-6.245 4.861-7.528 -3.578-1.004-4.064 4.863-6.408 6.172 -1.402 0.783-2.741 1.479-2.716 3.229 0.008 0.579 0.078 1.419 0.34 2.122 -0.421-0.591-0.699-1.125-0.739-0.653 -0.342 3.979 3.522 2.884 5.042 3.158 1.255 0.227 3.412 0.544 4.459 0.563 1.137 0.02 2.858-0.377 3.981-0.563 1.087-0.181 2.985 0.037 4.381-0.59 0.824-0.371 2.006-0.612 2.006-2.211l-0.402 0.326C109.855 118.916 109.878 118.874 109.895 118.829z" fill="#e1ac8f" stroke-width="none" opacity="1" stroke="none"></path><path id="SvgjsPath5435" d="M90.642 116.322c0.15-0.48 0.371-0.961 0.73-1.324 -0.631 1.095-0.719 2.661-0.152 3.799 0.697 1.399 1.94 1.104 3.131 0.563 1.191-0.54 1.188-0.938 2.426-0.526 0.963 0.319 1.737 0.795 2.797 0.793 1.132-0.002 1.977-0.471 3.03-0.798 1.278-0.38 2.357-0.162 3.559 0.378 1.13 0.509 2.426 1.15 3.301-0.117 0.773-1.148 0.69-2.922 0.017-4.092 1.51 1.542 1.145 5.938-1.745 5.384 -0.397-0.08-1.098-0.563-1.451-0.469 -0.64 0.175-1.445 0.007-2.091-0.054 -1.175-0.112-2.195-0.108-3.312 0.174 -0.429 0.1-0.869 0.158-1.309 0.154 -0.525-0.007-1.057-0.268-1.556-0.237 -1.4 0.086-1.984-0.214-3.39-0.124 -1.197 0.077-1.955 1.13-3.142 0.177C90.436 119.125 90.275 117.566 90.642 116.322 90.719 116.078 90.497 116.814 90.642 116.322zM101.211 107.662c0.557 0.115 1.063 0.367 1.531 0.684 -1.391-2.209-4.931-1.408-6.339 0.345C97.843 107.926 99.562 107.296 101.211 107.662 101.478 107.719 100.678 107.543 101.211 107.662z" fill="#c27b55" stroke-width="none" opacity="1" stroke="none"></path><path id="SvgjsPath5436" d="M93.079 117.678c-0.216-1.586 0.406-3.049-0.995-1.972C91.214 116.375 93.418 120.168 93.079 117.678z" fill="#ffe4d6" stroke-width="none" opacity="1" stroke="none"></path></g><g id="svga-group-beardwrap" transform="matrix(0.9799999 0 0 0.9998999000000001 2.000010000000003 0.001814812915991837)"><g id="svga-group-beard-single" ><path id="SvgjsPath4918" d="M100,18.13L100,18.13L100,18.13L100,18.13z" fill="#2a232b" stroke-width="none" opacity="1"></path></g></g><g id="svga-group-mustache-single" ><path id="SvgjsPath4916" d="M100,18.13L100,18.13L100,18.13L100,18.13z" fill="#2a232b" stroke-width="none" opacity="1"></path></g><g id="svga-group-hair-front" transform="matrix(0.9799999 0 0 0.9998999000000001 1.9749422782264645 0.004225039099452488)"><path id="SvgjsPath5986" d="M45.777 90.313c-2.998-2.502-6.749-8.939-8.423-17.962 -0.356-1.849-0.61-3.75-0.88-5.763 -1.131-8.446-3.555-18.289-1.878-28.373 2.013-12.337 11.271-25.693 23.036-33.237 18.191-11.772 64.171-17.033 73.754-1.537 5.559-0.203 11.557 1.249 15.699 4.471 13.709 10.284 19.01 45.211 15.211 62.559 -2.528 11.847-3.191 14.954-8.264 19.599 1.812-54.323-0.99-39.665-3.306-54.253 -2.715-1.99-3.727-1.168-7.909-3.542 -8.318-6.142-7.915-8.602-11.683-12.898 -3.356 3.969-8.181 7.463-11.907 9.077 0.944-1.547 1.749-3.282 2.282-4.398l-0.446-0.373c-3.129 2.262-9.451 5.478-13.336 5.823 2.087-2.565 1.843-2.242 2.677-3.805 -3.116 1.916-6.427 3.217-10.604 3.583 3.935-1.944 5.699-3.274 8.751-5.817l-0.279-0.518c-21.191 6.437-26.218 7.895-41.755 10.651 -13.012 1.627-8.248 0.252-12.968 0.252 -7.593 0-8.798 22.789-8.47 30.387C45.925 85.479 44.837 81.343 45.777 90.313z" fill="#2a232b" stroke-width="none" opacity="1"></path><path id="SvgjsPath5987" d="M162.296 70.471c-2.528 11.847-3.191 14.954-8.264 19.599 1.812-54.323-0.99-39.665-3.306-54.253 -2.715-1.99-3.727-1.168-7.909-3.542 -8.318-6.142-7.915-8.602-11.683-12.898 -3.356 3.969-8.181 7.463-11.907 9.077 0.944-1.547 1.749-3.282 2.282-4.398l-0.446-0.373c-3.129 2.262-9.451 5.478-13.336 5.823 2.087-2.565 1.843-2.242 2.677-3.805 -3.116 1.916-6.427 3.217-10.604 3.583 3.935-1.944 5.699-3.274 8.751-5.817l-0.279-0.518c-21.191 6.437-26.218 7.895-41.755 10.651 -13.012 1.627-8.248 0.252-12.968 0.252 -7.593 0-8.798 22.789-8.47 30.387 0.846 21.241-0.242 17.104 0.698 26.075 -2.998-2.502-6.749-8.939-8.423-17.962 -0.356-1.849-0.61-3.75-0.88-5.763 -1.131-8.446-3.555-18.289-1.878-28.373 1.59-9.746 13.727-24.08 22.024-31.729 -25.5 23.75-18 50.252-13.75 71.5C41.619 59.235 38 29 55 28c23 0 48.869-3.265 64.869-19.265C118.869 15.735 118 17 113 22c4-3 9-5 11-10 -1 4-1 7-4 10 3-2 6-5 9-8 0 3-2 6-3 9 2-5 8-8 9-13 -3 13 12.369 19.985 17.119 22.735 6.5 9 6.75 28 5.25 43.75 5.5-18 3-48.75-13.25-70C161.869 19.485 165.6 55.386 162.296 70.471zM60.369 19.985c12.207-0.359 21.165-2.337 34.25-9.75C82.032 15.751 74.067 18.383 60.369 19.985zM93.619 15.735c6.46-2.681 10.955-8.497 18.25-10.25C105.146 7.818 100.471 13.67 93.619 15.735zM54.869 19.485c4.629-8.324 14.52-15.222 27-16.25C71.713 5.123 60.837 10.953 54.869 19.485z" fill="#1b141c" stroke-width="none" opacity="1"></path><path id="SvgjsPath5988" d="M86.619 0c13.085-5.594 24.996-5.023 37.5 1.985 -13.123-5.605-23.154-4.532-23.154-4.532C98.577-2.36 94.759-2.452 86.619 0zM138.119 7.985c4.139 1.594 5.866 4.016 8.383 7.511 3.685 5.954 4.716 8.533 6.863 14.489C151.28 21.431 146.603 10.292 138.119 7.985zM114.619 7.735c-7.115 6.003-12.274 9.237-26.5 14C99.361 19.065 106.526 15.916 114.619 7.735zM137.619 13.985c2.067 7.036 5.876 10.957 11.75 14.5C143.909 24.378 140.339 20.566 137.619 13.985zM58.619 10.235c0 0-0.486 0.36-1.287 0.952 -9.145 6.479-16.294 18.86-16.463 34.548C42.864 30.127 49.049 19.143 58.619 10.235zM63.369 14.735c7.757-4.055 11.339-4.087 24.25-6.25C76.476 9.262 70.964 9.793 63.369 14.735zM84.417 18.964c-4.565 2.29-15.277 4.855-15.277 4.74 -3.757 0.834-10.27 2.281-10.27 2.281 2.522-0.319 6.849-0.825 10.418-1.591 0 0.135 8.796-1.985 11.379-3.319 2.836-1.338 1.875-0.813 4.703-2.59C85.369 18.485 85.008 18.667 84.417 18.964z" fill="#3a353a" stroke-width="none" opacity="1"></path><path id="SvgjsPath5989" d="M147.27 7.675c-4.229-3.289-10.323-4.741-15.721-4.54 -4.611-7.454-19.151-9.598-27.97-9.69 -13.304-0.138-34.324 3.653-46.11 11.28 -10.968 7.032-21.023 20.286-23.17 33.44 -1.284 7.721-0.178 15.721 1.13 23.38 0.64 3.7 0.97 7.43 1.63 10.86 1.897 10.227 6.295 16.626 9.09 18.57 -1.065-9.855 0.097-4.998-0.77-26.75 -0.403-9.331 1.305-30.714 8.49-30.06 4.883 0.345 1.014 1.191 12.7-0.271 15.347-2.722 20.366-4.152 41.79-10.659 -3.357 2.798-5.103 4.068-9.6 6.22 -0.01-0.01-0.01 0-0.01 0 -0.14 0.07-0.29 0.14-0.43 0.2 3.719-0.024 8.346-1.305 11.299-3.12 -0.407 0.762-1.632 2.147-2.539 3.3 3.844 0 10.74-3.438 14.16-5.91 -0.48 1-1.603 3.462-2.811 5.21 1.141-0.57 3.874-1.313 9.33-5.93 1.11-0.93 2.38-2.19 3.38-3.37 3.349 3.818 3.148 6.516 11.53 12.7 4.158 2.36 5.282 1.625 7.78 3.45 2.206 14.448 5.134-0.795 3.26 54.78 5.6-4.96 6.275-8.026 8.88-20.23C166.297 53.602 161.249 18.163 147.27 7.675zM160.949 70.325c-2.216 12.286-2.402 14.36-6.88 19.22 0.814-10.8 1.53-20.459 1.319-31.34 -0.444-16.061-2.58-13.048-4.1-22.72 -2.878-2.021-4.273-1.655-6.92-2.85 -0.46-0.17-0.84-0.46-1.27-0.68 -8.392-5.824-8.398-8.604-11.83-12.27 0.971-1.114 1.813-2.391 2.09-2.94 -1.509 2.264-7.977 8.239-14.11 11.63 1.059-1.676 1.864-3.305 2.44-4.78 1.735-1.212 2.92-2.358 3.92-3.35 -3.419 2.84-12.225 7.96-17.75 9.07 0.174-0.179 1.875-1.826 2.516-3.074 1.355-0.542 5.016-2.779 6.304-4.203 -6.304 4.203-13.475 6.72-15.979 7.136 3.064-1.149 7.04-4.731 9.08-6.36 1.971-1.574 2.353-2.206 4.399-4.28 -1.344 0.938-3.44 2.993-6.056 4.097 -1.547 0.653-43.89 12.498-51.254 10.574 -1.478-0.37-3.149-0.818-4.62-0.39 -11.8 5.076-7.461 37.634-7.3 47.63 0.136 8.423 0.74 9.89 0.74 9.89 -7.751-7.36-8.089-23.554-8.9-29.18 -1.028-7.456-1.923-15.371-0.55-22.77 2.24-12.64 11.912-25.407 22.26-32.06 15.469-10.04 61.594-18.533 73.04-2.83C159.954 3.495 163.94 50.271 160.949 70.325z" fill="#000000" stroke-width="none" opacity="1"></path></g><g id="svga-group-glasses-single" ><path id="SvgjsPath5990" d="M52.7 78.99c11.69 3.22 28.34-0.15 40.03 7.14 -0.08 0.44-0.16 0.87-0.25 1.31 -0.64 2.91-3.23 4.82-6.36 5.38 -8.44 1.51-22.57 1.32-30.84 0.74 -1.19-0.08-2.16-0.9-2.36-2C52.11 87.2 51.8 83.54 52.7 78.99zM106.69 80.35c0.05 2.48 0.32 4.73 0.83 7.1 0.63 2.91 3.23 4.82 6.36 5.38 8.44 1.51 22.57 1.32 30.84 0.74 1.19-0.08 2.16-0.9 2.36-2 0.31-1.69 0.55-3.28 0.67-4.85 -11.7-8.04-28.85-4.44-40.84-7.71C106.77 79.44 106.68 79.89 106.69 80.35z" fill="#ffffff" stroke-width="none" opacity="0.2"></path><path id="SvgjsPath5991" d="M93.31 80.35c-0.05 2.02-0.24 3.88-0.58 5.78 -11.69-7.3-28.35-3.92-40.03-7.14 0.03-0.12 0.04-0.24 0.07-0.37 0.26-1.24 1.34-2.15 2.68-2.28 12.7-1.18 21.35-1.08 33.89-0.11C91.61 76.42 93.36 78.22 93.31 80.35zM147.24 78.63c-0.26-1.24-1.34-2.15-2.68-2.28 -12.7-1.18-21.35-1.08-33.89-0.11 -1.78 0.14-3.22 1.27-3.75 2.78 11.98 3.27 29.14-0.33 40.84 7.71C147.96 84.13 147.85 81.57 147.24 78.63z" fill="#ffffff" stroke-width="none" opacity="0.4"></path><path id="SvgjsPath5992" d="M153 78.74h-5.22c-0.02-0.07-0.02-0.14-0.04-0.21 -0.3-1.44-1.57-2.52-3.13-2.67 -12.9-1.2-21.6-1.07-33.98-0.11 -0.15 0.01-0.29 0.05-0.43 0.07l0.03-0.03c0 0-0.12 0.03-0.33 0.08 -0.09 0.02-0.19 0.04-0.28 0.06 -1.08 0.24-3.42 0.7-5.37 0.76 -3.91 0.12-4.75 0.11-8.5 0 -1.95-0.06-4.29-0.52-5.37-0.76 -0.09-0.03-0.18-0.04-0.28-0.06 -0.21-0.05-0.33-0.08-0.33-0.08l0.03 0.03c-0.14-0.02-0.28-0.06-0.43-0.07 -12.39-0.96-21.09-1.09-33.98 0.11 -1.56 0.15-2.83 1.23-3.13 2.67 -0.02 0.07-0.02 0.14-0.04 0.21H47v2.92h4.79c-0.17 1.7-0.19 3.33-0.07 4.97h1.06c-0.2-2.54-0.09-5.05 0.51-7.92 0.21-1.02 1.1-1.78 2.21-1.88 6.3-0.59 11.69-0.86 16.98-0.86 4.97 0 9.99 0.22 16.81 0.75 2 0.15 3.53 1.74 3.49 3.61 -0.05 2.2-0.28 4.22-0.69 6.29h1.07c0.39-2.02 0.62-4.02 0.67-6.27 0.01-0.66-0.13-1.28-0.39-1.85 0.33-0.07 0.85-0.16 1.51-0.21 2.51-0.18 8.07-0.14 10.11 0 0.66 0.05 1.19 0.14 1.51 0.21 -0.26 0.57-0.41 1.19-0.39 1.85 0.05 2.25 0.28 4.25 0.67 6.27h1.07c-0.41-2.07-0.64-4.09-0.68-6.29 -0.04-1.87 1.49-3.46 3.49-3.61 6.82-0.53 11.84-0.75 16.81-0.75 5.29 0 10.69 0.27 16.98 0.86 1.11 0.1 2 0.86 2.21 1.88 0.6 2.87 0.71 5.38 0.51 7.92h1.05c0.13-1.64 0.1-3.27-0.07-4.97H153V78.74z" fill="#000000" stroke-width="none" opacity="1"></path></g></g></g><rect id="SvgjsRect4885" width="200" height="15" x="0" y="185" fill="#ecf0f1" opacity="0.5" style="display:none;"></rect><text id="SvgjsText4886" font-family="&quot;Roboto&quot;, &quot;Helvetica Neue&quot;, Helvetica, Arial, sans-serif" style="font-size:0.84em;font-family:&quot;Roboto&quot;, &quot;Helvetica Neue&quot;, Helvetica, Arial, sans-serif;text-anchor:middle;font-weight:400;display:none;" font-size="0.84em" text-anchor="middle" font-weight="400" fill="#000000" x="100" y="185"><tspan id="SvgjsTspan4887" dy="1.2em" x="100" style="font-size:0.84em;font-family:&quot;Roboto&quot;, &quot;Helvetica Neue&quot;, Helvetica, Arial, sans-serif;text-anchor:middle;font-weight:400;">Created on Cartoonize.net</tspan></text></g><defs id="SvgjsDefs4850"><radialGradient id="SvgjsRadialGradient4901" cx="100" cy="114" r="41" gradientUnits="userSpaceOnUse" class="svga-on-canvas-facehighlight-gradient-single-0"><stop id="SvgjsStop4902" stop-opacity="0.5" stop-color="#ffe4d6" offset="0" ></stop><stop id="SvgjsStop4903" stop-opacity="0" stop-color="#f0c7b1" offset="0.9" ></stop></radialGradient><radialGradient id="SvgjsRadialGradient4905" cx="100" cy="54" r="37" gradientUnits="userSpaceOnUse" class="svga-on-canvas-facehighlight-gradient-single-1"><stop id="SvgjsStop4906" stop-opacity="0.5" stop-color="#ffe4d6" offset="0" ></stop><stop id="SvgjsStop4907" stop-opacity="0" stop-color="#f0c7b1" offset="0.9" ></stop></radialGradient><radialGradient id="SvgjsRadialGradient4935" cx="129.041" cy="83.945" r="15.117" gradientTransform="matrix(-0.9945 0.1042 0.1042 0.9945 192.8281 -12.4633)" gradientUnits="userSpaceOnUse" class="svga-on-canvas-eyesback-gradient-left-0"><stop id="SvgjsStop4936" stop-opacity="1" stop-color="#ffffff" offset="0" ></stop><stop id="SvgjsStop4937" stop-opacity="1" stop-color="#fcfdfd" offset="0.315" ></stop><stop id="SvgjsStop4938" stop-opacity="1" stop-color="#f4f7f8" offset="0.504" ></stop><stop id="SvgjsStop4939" stop-opacity="1" stop-color="#e5ecef" offset="0.66" ></stop><stop id="SvgjsStop4940" stop-opacity="1" stop-color="#d8e2e7" offset="0.76" ></stop></radialGradient><radialGradient id="SvgjsRadialGradient4942" cx="128.643" cy="83.986" r="15.116" gradientTransform="matrix(0.9945 0.1042 -0.1042 0.9945 7.1738 -12.4633)" gradientUnits="userSpaceOnUse" class="svga-on-canvas-eyesback-gradient-right-0"><stop id="SvgjsStop4943" stop-opacity="1" stop-color="#ffffff" offset="0" ></stop><stop id="SvgjsStop4944" stop-opacity="1" stop-color="#fcfdfd" offset="0.316" ></stop><stop id="SvgjsStop4945" stop-opacity="1" stop-color="#f4f7f8" offset="0.505" ></stop><stop id="SvgjsStop4946" stop-opacity="1" stop-color="#e5ecef" offset="0.661" ></stop><stop id="SvgjsStop4947" stop-opacity="1" stop-color="#d8e2e7" offset="0.76" ></stop></radialGradient><radialGradient id="SvgjsRadialGradient4949" cx="129.041" cy="83.945" r="15.117" gradientTransform="matrix(-0.9945 0.1042 0.1042 0.9945 192.8281 -12.4633)" gradientUnits="userSpaceOnUse" class="svga-on-canvas-eyesfront-gradient-left-0"><stop id="SvgjsStop4950" stop-opacity="1" stop-color="#ffffff" offset="0" ></stop><stop id="SvgjsStop4951" stop-opacity="1" stop-color="#fcfdfd" offset="0.316" ></stop><stop id="SvgjsStop4952" stop-opacity="1" stop-color="#f4f7f8" offset="0.505" ></stop><stop id="SvgjsStop4953" stop-opacity="1" stop-color="#e5ecef" offset="0.661" ></stop><stop id="SvgjsStop4954" stop-opacity="1" stop-color="#d8e2e7" offset="0.76" ></stop></radialGradient><radialGradient id="SvgjsRadialGradient4958" cx="121.986" cy="82.496" fx="133.239" fy="82.527" r="16.003" gradientTransform="matrix(0.9998 0.0208 0.0166 -0.7998 -45.3195 145.9395)" gradientUnits="userSpaceOnUse" class="svga-on-canvas-eyesfront-gradient-left-3"><stop id="SvgjsStop4959" stop-opacity="1" stop-color="#e1ac8f" offset="0" ></stop><stop id="SvgjsStop4960" stop-opacity="0.3" stop-color="#e1ac8f" offset="0.7" ></stop><stop id="SvgjsStop4961" stop-opacity="0" stop-color="#f0c7b1" offset="1" ></stop></radialGradient><radialGradient id="SvgjsRadialGradient4963" cx="68.931" cy="105.995" r="29.524" gradientTransform="matrix(1.0336 0 0 1.0336 -1.6796 1.3127)" gradientUnits="userSpaceOnUse" class="svga-on-canvas-eyesfront-gradient-left-4"><stop id="SvgjsStop4964" stop-opacity="0" stop-color="#000000" offset="0.95" ></stop><stop id="SvgjsStop4965" stop-opacity="0.2" stop-color="#000000" offset="1" ></stop></radialGradient><radialGradient id="SvgjsRadialGradient4969" cx="128.643" cy="83.986" r="15.116" gradientTransform="matrix(0.9945 0.1042 -0.1042 0.9945 7.1738 -12.4633)" gradientUnits="userSpaceOnUse" class="svga-on-canvas-eyesfront-gradient-right-0"><stop id="SvgjsStop4970" stop-opacity="1" stop-color="#ffffff" offset="0" ></stop><stop id="SvgjsStop4971" stop-opacity="1" stop-color="#fcfdfd" offset="0.316" ></stop><stop id="SvgjsStop4972" stop-opacity="1" stop-color="#f4f7f8" offset="0.505" ></stop><stop id="SvgjsStop4973" stop-opacity="1" stop-color="#e5ecef" offset="0.661" ></stop><stop id="SvgjsStop4974" stop-opacity="1" stop-color="#d8e2e7" offset="0.76" ></stop></radialGradient><radialGradient id="SvgjsRadialGradient4978" cx="121.587" cy="82.496" fx="132.839" fy="82.527" r="16.003" gradientTransform="matrix(-0.9998 0.0208 -0.0166 -0.7998 244.5208 145.9478)" gradientUnits="userSpaceOnUse" class="svga-on-canvas-eyesfront-gradient-right-3"><stop id="SvgjsStop4979" stop-opacity="1" stop-color="#e1ac8f" offset="0" ></stop><stop id="SvgjsStop4980" stop-opacity="0.3" stop-color="#e1ac8f" offset="0.7" ></stop><stop id="SvgjsStop4981" stop-opacity="0" stop-color="#f0c7b1" offset="1" ></stop></radialGradient><radialGradient id="SvgjsRadialGradient4983" cx="69.316" cy="105.995" r="29.524" gradientTransform="matrix(-1.0336 0 0 1.0336 201.6796 1.3127)" gradientUnits="userSpaceOnUse" class="svga-on-canvas-eyesfront-gradient-right-4"><stop id="SvgjsStop4984" stop-opacity="0" stop-color="#000000" offset="0.95" ></stop><stop id="SvgjsStop4985" stop-opacity="0.2" stop-color="#000000" offset="1" ></stop></radialGradient><radialGradient id="SvgjsRadialGradient5487" cx="-568.659" cy="-521.042" r="59.751" gradientTransform="matrix(0.096 -0.0248 0.0245 0.0961 141.2814 119.9893)" gradientUnits="userSpaceOnUse" class="svga-on-canvas-eyesiris-gradient-left-1"><stop id="SvgjsStop5488" stop-opacity="1" stop-color="#ffffff" offset="0" ></stop><stop id="SvgjsStop5489" stop-opacity="0" stop-color="#ffffff" offset="1" ></stop></radialGradient><radialGradient id="SvgjsRadialGradient5491" cx="-582.838" cy="-519.099" r="59.745" gradientTransform="matrix(0.0991 8.856319e-004 -0.0011 0.0991 131.1134 135.9855)" gradientUnits="userSpaceOnUse" class="svga-on-canvas-eyesiris-gradient-left-2"><stop id="SvgjsStop5492" stop-opacity="1" stop-color="#ffffff" offset="0" ></stop><stop id="SvgjsStop5493" stop-opacity="0" stop-color="#ffffff" offset="1" ></stop></radialGradient><linearGradient id="SvgjsLinearGradient5497" x1="122.67" y1="88.268" x2="123.606" y2="87.152" gradientTransform="matrix(1 0 0 1 -52 0)" gradientUnits="userSpaceOnUse" class="svga-on-canvas-eyesiris-gradient-left-5"><stop id="SvgjsStop5498" stop-opacity="1" stop-color="#ffffff" offset="0" ></stop><stop id="SvgjsStop5499" stop-opacity="0" stop-color="#ffffff" offset="1" ></stop></linearGradient><linearGradient id="SvgjsLinearGradient5501" x1="127.212" y1="82.296" x2="126.463" y2="83.189" gradientTransform="matrix(1 0 0 1 -52 0)" gradientUnits="userSpaceOnUse" class="svga-on-canvas-eyesiris-gradient-left-6"><stop id="SvgjsStop5502" stop-opacity="1" stop-color="#ffffff" offset="0" ></stop><stop id="SvgjsStop5503" stop-opacity="0" stop-color="#ffffff" offset="1" ></stop></linearGradient><linearGradient id="SvgjsLinearGradient5505" x1="129.636" y1="79.822" x2="127.91" y2="81.879" gradientTransform="matrix(1 0 0 1 -52 0)" gradientUnits="userSpaceOnUse" class="svga-on-canvas-eyesiris-gradient-left-7"><stop id="SvgjsStop5506" stop-opacity="1" stop-color="#ffffff" offset="0" ></stop><stop id="SvgjsStop5507" stop-opacity="0" stop-color="#ffffff" offset="1" ></stop></linearGradient><radialGradient id="SvgjsRadialGradient5510" cx="-568.654" cy="-521.042" r="59.752" gradientTransform="matrix(0.096 -0.0248 0.0245 0.0961 193.2804 119.9894)" gradientUnits="userSpaceOnUse" class="svga-on-canvas-eyesiris-gradient-right-1"><stop id="SvgjsStop5511" stop-opacity="1" stop-color="#ffffff" offset="0" ></stop><stop id="SvgjsStop5512" stop-opacity="0" stop-color="#ffffff" offset="1" ></stop></radialGradient><radialGradient id="SvgjsRadialGradient5514" cx="-582.833" cy="-519.102" r="59.747" gradientTransform="matrix(0.0991 8.856319e-004 -0.0011 0.0991 183.1126 135.9856)" gradientUnits="userSpaceOnUse" class="svga-on-canvas-eyesiris-gradient-right-2"><stop id="SvgjsStop5515" stop-opacity="1" stop-color="#ffffff" offset="0" ></stop><stop id="SvgjsStop5516" stop-opacity="0" stop-color="#ffffff" offset="1" ></stop></radialGradient><linearGradient id="SvgjsLinearGradient5520" x1="122.67" y1="88.268" x2="123.606" y2="87.152" gradientUnits="userSpaceOnUse" class="svga-on-canvas-eyesiris-gradient-right-5"><stop id="SvgjsStop5521" stop-opacity="1" stop-color="#ffffff" offset="0" ></stop><stop id="SvgjsStop5522" stop-opacity="0" stop-color="#ffffff" offset="1" ></stop></linearGradient><linearGradient id="SvgjsLinearGradient5524" x1="127.212" y1="82.296" x2="126.463" y2="83.189" gradientUnits="userSpaceOnUse" class="svga-on-canvas-eyesiris-gradient-right-6"><stop id="SvgjsStop5525" stop-opacity="1" stop-color="#ffffff" offset="0" ></stop><stop id="SvgjsStop5526" stop-opacity="0" stop-color="#ffffff" offset="1" ></stop></linearGradient><linearGradient id="SvgjsLinearGradient5528" x1="129.636" y1="79.822" x2="127.91" y2="81.879" gradientUnits="userSpaceOnUse" class="svga-on-canvas-eyesiris-gradient-right-7"><stop id="SvgjsStop5529" stop-opacity="1" stop-color="#ffffff" offset="0" ></stop><stop id="SvgjsStop5530" stop-opacity="0" stop-color="#ffffff" offset="1" ></stop></linearGradient><linearGradient id="SvgjsLinearGradient5971" x1="100" y1="172" x2="100" y2="128" gradientUnits="userSpaceOnUse" class="svga-on-canvas-chinshadow-gradient-single-0"><stop id="SvgjsStop5972" stop-opacity="0.8" stop-color="#e1ac8f" offset="0" ></stop><stop id="SvgjsStop5973" stop-opacity="1" stop-color="#c27b55" offset="0.7" ></stop></linearGradient><linearGradient id="SvgjsLinearGradient5994" x1="100" y1="142" x2="100" y2="139" gradientUnits="userSpaceOnUse" class="svga-on-canvas-mouth-gradient-single-0"><stop id="SvgjsStop5995" stop-opacity="1" stop-color="#e8b9a0" offset="0.1" ></stop><stop id="SvgjsStop5996" stop-opacity="1" stop-color="#e1ac8f" offset="1" ></stop></linearGradient></defs></svg>